<?xml version="1.0" encoding="utf-8"?>
<!-- Generator: Adobe Illustrator 14.0.0, SVG Export Plug-In . SVG Version: 6.00 Build 43363)  -->
<!DOCTYPE svg PUBLIC "-//W3C//DTD SVG 1.1//EN" "http://www.w3.org/Graphics/SVG/1.1/DTD/svg11.dtd">
<svg version="1.1" id="Layer_1" xmlns="http://www.w3.org/2000/svg" xmlns:xlink="http://www.w3.org/1999/xlink" x="0px" y="0px"
	 width="48.333px" height="48.303px" viewBox="0 0 48.333 48.303" enable-background="new 0 0 48.333 48.303" xml:space="preserve">
<polygon fill-rule="evenodd" clip-rule="evenodd" fill="#FDEDE3" stroke="#D87035" stroke-width="3" stroke-linecap="round" stroke-linejoin="round" points="
	-47.326,-67.184 -77.636,-14.684 -217.016,-14.684 -247.326,-67.184 -217.016,-119.684 -77.636,-119.684 "/>
<polygon fill-rule="evenodd" clip-rule="evenodd" fill="#EDDBD1" points="-56.492,-67.184 -82.702,-21.684 -211.282,-21.684 
	-237.492,-67.184 -211.282,-112.684 -82.702,-112.684 "/>
<path fill="#E2F3FC" stroke="#229BDB" stroke-width="3" d="M-47.248,108.586c0,1.713-1.359,3.102-3.036,3.102h-194.085
	c-1.676,0-3.035-1.389-3.035-3.102V27.268c0-1.712,1.359-3.101,3.035-3.101h194.085c1.676,0,3.036,1.389,3.036,3.101V108.586z"/>
<path fill="#D4E2E8" d="M-54.395,98.635c0,1.4-1.111,2.535-2.481,2.535h-180.648c-1.37,0-2.481-1.135-2.481-2.535V32.164
	c0-1.399,1.111-2.535,2.481-2.535h180.648c1.37,0,2.481,1.135,2.481,2.535V98.635z"/>
<path fill="#229BDB" d="M-47.248,108.688c0,1.657-1.343,3-3,3h-194.156c-1.657,0-3-1.343-3-3v-1.604c0-1.657,1.343-3,3-3h194.156
	c1.657,0,3,1.343,3,3V108.688z"/>
<circle fill="#FFFFFF" stroke="#DEDFE0" stroke-width="3" cx="24.167" cy="-43.018" r="24.167"/>
<line fill="none" stroke="#4287F6" stroke-width="3" x1="16.209" y1="-51.083" x2="32.374" y2="-34.918"/>
<line fill="none" stroke="#4287F6" stroke-width="3" x1="32.018" y1="-51.083" x2="15.853" y2="-34.918"/>
<circle fill="#4287F6" cx="24.167" cy="24.167" r="24.167"/>
<line fill="none" stroke="#FFFFFF" stroke-width="3" x1="15.646" y1="24.12" x2="32.833" y2="24.12"/>
<line fill="none" stroke="#FFFFFF" stroke-width="3" x1="24.05" y1="15.715" x2="24.05" y2="32.903"/>
</svg>
