<?xml version="1.0" encoding="utf-8"?>
<!-- Generator: Adobe Illustrator 14.0.0, SVG Export Plug-In . SVG Version: 6.00 Build 43363)  -->
<!DOCTYPE svg PUBLIC "-//W3C//DTD SVG 1.1//EN" "http://www.w3.org/Graphics/SVG/1.1/DTD/svg11.dtd">
<svg version="1.1" id="Layer_1" xmlns="http://www.w3.org/2000/svg" xmlns:xlink="http://www.w3.org/1999/xlink" x="0px" y="0px"
	 width="51.391px" height="51.375px" viewBox="0 0 51.391 51.375" enable-background="new 0 0 51.391 51.375" xml:space="preserve">
<polygon fill-rule="evenodd" clip-rule="evenodd" fill="#FDEDE3" stroke="#D87035" stroke-width="3" stroke-linecap="round" stroke-linejoin="round" points="
	-45.794,1.54 -76.104,54.04 -215.484,54.04 -245.794,1.54 -215.484,-50.96 -76.104,-50.96 "/>
<polygon fill-rule="evenodd" clip-rule="evenodd" fill="#EDDBD1" points="-54.961,1.54 -81.171,47.04 -209.751,47.04 -235.961,1.54 
	-209.751,-43.96 -81.171,-43.96 "/>
<path fill="#E2F3FC" stroke="#229BDB" stroke-width="3" d="M-45.716,177.311c0,1.713-1.359,3.102-3.036,3.102h-194.085
	c-1.676,0-3.035-1.389-3.035-3.102V95.992c0-1.712,1.359-3.101,3.035-3.101h194.085c1.676,0,3.036,1.389,3.036,3.101V177.311z"/>
<path fill="#D4E2E8" d="M-52.863,167.359c0,1.4-1.111,2.535-2.481,2.535h-180.648c-1.37,0-2.481-1.135-2.481-2.535v-66.471
	c0-1.399,1.111-2.535,2.481-2.535h180.648c1.37,0,2.481,1.135,2.481,2.535V167.359z"/>
<path fill="#229BDB" d="M-45.716,177.412c0,1.657-1.343,3-3,3h-194.156c-1.657,0-3-1.343-3-3v-1.604c0-1.657,1.343-3,3-3h194.156
	c1.657,0,3,1.343,3,3V177.412z"/>
<circle fill="#FFFFFF" stroke="#DEDFE0" stroke-width="3" cx="25.698" cy="25.707" r="24.167"/>
<line fill="none" stroke="#4287F6" stroke-width="3" x1="17.74" y1="17.641" x2="33.905" y2="33.806"/>
<line fill="none" stroke="#4287F6" stroke-width="3" x1="33.549" y1="17.641" x2="17.384" y2="33.806"/>
<circle fill="#4287F6" cx="25.698" cy="92.891" r="24.167"/>
<line fill="none" stroke="#FFFFFF" stroke-width="3" x1="17.177" y1="92.845" x2="34.365" y2="92.845"/>
<line fill="none" stroke="#FFFFFF" stroke-width="3" x1="25.582" y1="84.44" x2="25.582" y2="101.628"/>
</svg>
