<?xml version="1.0" encoding="utf-8"?>
<!-- Generator: Adobe Illustrator 14.0.0, SVG Export Plug-In . SVG Version: 6.00 Build 43363)  -->
<!DOCTYPE svg PUBLIC "-//W3C//DTD SVG 1.1//EN" "http://www.w3.org/Graphics/SVG/1.1/DTD/svg11.dtd">
<svg version="1.1" id="Layer_1" xmlns="http://www.w3.org/2000/svg" xmlns:xlink="http://www.w3.org/1999/xlink" x="0px" y="0px"
	 width="203.5px" height="108.5px" viewBox="0 0 203.5 108.5" enable-background="new 0 0 203.5 108.5" xml:space="preserve">
<polygon fill-rule="evenodd" clip-rule="evenodd" fill="#FDEDE3" stroke="#D87035" stroke-width="3" stroke-linecap="round" stroke-linejoin="round" points="
	201.924,54.525 171.614,107.025 32.234,107.025 1.924,54.525 32.234,2.025 171.614,2.025 "/>
<polygon fill-rule="evenodd" clip-rule="evenodd" fill="#EDDBD1" points="192.758,54.525 166.548,100.025 37.968,100.025 
	11.758,54.525 37.968,9.025 166.548,9.025 "/>
<path fill="#E2F3FC" stroke="#229BDB" stroke-width="3" d="M202.002,230.295c0,1.713-1.359,3.102-3.036,3.102H4.882
	c-1.676,0-3.035-1.389-3.035-3.102v-81.318c0-1.712,1.359-3.101,3.035-3.101h194.085c1.676,0,3.036,1.389,3.036,3.101V230.295z"/>
<path fill="#D4E2E8" d="M194.855,220.344c0,1.4-1.111,2.535-2.481,2.535H11.726c-1.37,0-2.481-1.135-2.481-2.535v-66.471
	c0-1.399,1.111-2.535,2.481-2.535h180.648c1.37,0,2.481,1.135,2.481,2.535V220.344z"/>
<path fill="#229BDB" d="M202.002,230.396c0,1.657-1.343,3-3,3H4.847c-1.657,0-3-1.343-3-3v-1.604c0-1.657,1.343-3,3-3h194.156
	c1.657,0,3,1.343,3,3V230.396z"/>
</svg>
