<?xml version="1.0" encoding="utf-8"?>
<!-- Generator: Adobe Illustrator 14.0.0, SVG Export Plug-In . SVG Version: 6.00 Build 43363)  -->
<!DOCTYPE svg PUBLIC "-//W3C//DTD SVG 1.1//EN" "http://www.w3.org/Graphics/SVG/1.1/DTD/svg11.dtd">
<svg version="1.1" id="Layer_1" xmlns="http://www.w3.org/2000/svg" xmlns:xlink="http://www.w3.org/1999/xlink" x="0px" y="0px"
	 width="203.5px" height="91px" viewBox="0 0 203.5 91" enable-background="new 0 0 203.5 91" xml:space="preserve">
<polygon fill-rule="evenodd" clip-rule="evenodd" fill="#FDEDE3" stroke="#D87035" stroke-width="3" stroke-linecap="round" stroke-linejoin="round" points="
	201.924,-89.475 171.614,-36.975 34.234,-36.975 3.924,-89.475 34.234,-141.975 171.614,-141.975 "/>
<polygon fill-rule="evenodd" clip-rule="evenodd" fill="#EDDBD1" points="192.758,-89.475 166.548,-43.975 39.968,-43.975 
	13.758,-89.475 39.968,-134.975 166.548,-134.975 "/>
<path fill="#E2F3FC" stroke="#229BDB" stroke-width="3" d="M202.002,86.295c0,1.713-1.359,3.102-3.036,3.102H4.882
	c-1.676,0-3.035-1.389-3.035-3.102V4.977c0-1.712,1.359-3.101,3.035-3.101h194.085c1.676,0,3.036,1.389,3.036,3.101V86.295z"/>
<path fill="#D4E2E8" d="M194.855,76.344c0,1.4-1.111,2.535-2.481,2.535H11.726c-1.37,0-2.481-1.135-2.481-2.535V9.873
	c0-1.399,1.111-2.535,2.481-2.535h180.648c1.37,0,2.481,1.135,2.481,2.535V76.344z"/>
<path fill="#229BDB" d="M202.002,86.396c0,1.657-1.343,3-3,3H4.847c-1.657,0-3-1.343-3-3v-1.604c0-1.657,1.343-3,3-3h194.156
	c1.657,0,3,1.343,3,3V86.396z"/>
</svg>
